@startuml

class Account {
- id: Long
- password: String
- email: String
- website: String
}

class Company {
- name: String
- address: String
}

class Project {
- id: Long
- name: String
- company: Company
- startTime: LocalDate
- endTime: LocalDate
}

class Person {
- firstName: String
- lastName: String
- birthdate: LocalDate
}

class ProjectMember {
- id: Long
- project: Project
- person: Person
}

class Vacancy {
- id: Long
- title: String
- deadline: LocalDate
- opened: Boolean
- company: Company
- project: Project
}

class Message {
- id: Long
- source: Account
- content: String
- time: LocalDate
- chat: Chat
}

class Employee {
- id: Long
- person: Person
- company: Company
- isAdmin: Boolean
}

class Applicant {
- id: Long
- vacancy: Vacancy
- person: Person
}

class Chat {
- id: Long
- account1: Account
- account2: Account
- token: String
}

Account <|-- Company
Account <|-- Person
Company "1" -- "*" Project
Company "1" -- "*" Vacancy
Applicant "*" -- "1" Vacancy
Person "1" -- "*" Applicant
Message "*" -- "1" Account
Project "1" -- "*" Vacancy
Employee "*" -- "1" Company
Person "1" -- "*" Employee
ProjectMember "*" -- "1" Project
Person "1" -- "*" ProjectMember
Chat "1" -left- "*" Message
Chat "*" -- "2" Account
@enduml
